<svg width="657" height="657" viewBox="0 0 657 657" fill="none" xmlns="http://www.w3.org/2000/svg">
<path opacity="0.4" d="M176.503 38.1527C184.634 27.891 200.33 15.5599 211.371 10.7512C235.685 0.170543 292.146 -1.07232 317.288 8.42811C327.365 12.2348 343.666 23.0301 353.515 32.4199C373.957 51.9088 376.502 78.1586 363.977 140.477C359.889 160.845 358.391 179.358 360.65 181.616C362.916 183.88 380.74 170.625 400.276 152.158C419.806 133.697 443.464 115.672 452.851 112.106C478.585 102.326 522.898 104.311 539.583 115.998C553.918 126.032 586.246 189.19 586.246 207.156C586.246 229.385 563.852 269.442 546.379 278.474C536.081 283.797 527.657 290.799 527.657 294.033C527.657 297.267 544.504 303.299 565.089 307.451C618.301 318.161 649.256 340.793 654.692 372.965C661.573 413.667 653.012 446.404 629.765 468.281C589.325 506.341 549.387 509.068 483.298 478.289C464.276 469.426 447.018 463.856 444.961 465.919C442.897 467.975 446.015 486.774 451.887 507.682C468.527 566.981 466.19 595.574 442.493 622.552C417.45 651.067 384.893 661.101 348.9 651.411C296.911 637.421 267.962 601.521 276.054 561.079C281.079 535.962 275.513 536.541 242.788 564.535C208.637 593.758 177.558 606.668 141.35 606.668C115.792 606.668 109.803 603.551 86.217 577.972C38.3233 526.038 43.9999 476.142 105.063 412.144C123.278 393.059 135.732 375.353 132.737 372.802C129.742 370.251 114.112 364.206 97.9999 359.365C54.546 346.298 22.0289 328.872 10.5453 312.487C-4.91583 290.428 -3.02144 226.482 13.9044 199.107C44.6574 149.373 71.882 146.477 143.576 185.312C171.641 200.512 196.867 210.683 199.646 207.904C202.42 205.132 196.736 186.639 187.004 166.812C177.278 146.985 167.604 114.124 165.515 93.7887C162.227 61.7931 163.705 54.3034 176.503 38.1527Z" fill="#FFBB06"/>
</svg>
