<svg width="657" height="657" viewBox="0 0 657 657" fill="none" xmlns="http://www.w3.org/2000/svg">
<path opacity="0.5" fill-rule="evenodd" clip-rule="evenodd" d="M419.29 640.576C395.946 660.059 325.152 667.086 278.927 633.987C169.354 555.53 148.979 470.617 88.0138 358.685C67.8675 321.694 67.5576 313.91 61.0285 273.035C54.4994 232.161 78.9059 203.48 138.561 246.078C171.899 284.365 174.581 273.602 199.775 319.161C201.353 322.014 243.639 402.79 258.75 390.179C268.985 381.637 270.903 339.8 271.908 327.214C276.421 270.717 269.946 122.645 278.927 66.4266C278.927 16.8796 349.036 -27.9132 363.802 21.3839C390.659 111.053 394.236 226.075 404.377 319.161C405.404 328.579 420.771 386.633 443.854 377.001C459.736 370.373 479.777 328.795 485.087 315.499C490.872 301.016 500.326 287.593 506.141 273.035C515.169 250.433 541.369 203.288 576.45 219.053C611.531 234.818 598.056 273.035 576.45 358.685C547.761 472.412 522.479 472.18 493.86 537.342C468.095 571.747 454.065 611.556 419.29 640.576Z" fill="#F9C80E"/>
</svg>
