<svg width="657" height="657" viewBox="0 0 657 657" fill="none" xmlns="http://www.w3.org/2000/svg">
<path opacity="0.4" d="M68.8656 233.308C115.118 170.756 187.889 133.748 279.52 126.177C378.948 117.963 483.592 133.451 541.533 164.957C584.274 188.198 621.861 242.223 639.391 305.599C658.997 376.491 663.486 518.869 646.454 529.636C643.579 531.455 620.487 532.966 595.138 532.999C558.039 533.042 547.945 531.942 543.344 527.348C540.203 524.207 537.633 519.388 537.633 516.639C537.633 513.887 535.122 492.352 532.054 468.781C509.402 294.737 452.588 235.221 313.116 239.434C275.373 240.574 268.129 241.878 249.973 250.782C238.698 256.316 222.844 268.028 214.742 276.809C177.806 316.842 145.082 414.672 145.082 485.064C145.082 503.864 143.49 515.277 140.539 517.631C138.042 519.624 108.491 522.05 74.8737 523.023C26.0666 524.436 12.7453 523.786 8.75441 519.799C1.15055 512.202 -1.55373 485.169 0.852462 440.721C4.93063 365.267 31.7404 283.52 68.8656 233.308Z" fill="#C0B811"/>
</svg>
