<svg width="657" height="657" viewBox="0 0 657 657" fill="none" xmlns="http://www.w3.org/2000/svg">
<path opacity="0.5" d="M586.469 205.999C595.667 198.521 605.266 191.685 607.799 190.808C615.469 188.154 619.634 191.275 635.765 211.762C659.124 241.427 660.4 244.605 652.958 254.566C644.333 266.115 600.188 295.379 560.806 315.651C529.509 331.762 526.706 332.594 504.906 332.27C488.664 332.029 469.867 328.451 440.596 320.023C387.038 304.607 358.951 302.378 339.101 311.967C319.018 321.671 300.378 343.778 280.594 381.358C248.588 442.151 224.398 459.348 162.443 465.35C135.088 468.001 117.271 467.579 71.351 463.197C13.0961 457.64 -0.107517 453.909 0.000657168 443.03C0.0738337 435.863 11.1553 393.349 14.2574 388.338C16.8694 384.121 25.1543 385.105 53.9318 393.05C76.5688 399.302 118.314 399.185 140.153 392.812C176.229 382.282 198.363 362.579 232.966 310.199C255.807 275.625 283.401 247.8 303.807 238.766C335.397 224.781 370.271 225.264 431.704 240.541C495.959 256.516 535.061 247.79 586.469 205.999Z" fill="#FE2C07"/>
</svg>
