<svg width="657" height="657" viewBox="0 0 657 657" fill="none" xmlns="http://www.w3.org/2000/svg">
<path opacity="0.4" d="M180.15 300.502C262.807 231.755 369.731 186.989 435.702 193.5C470.585 196.94 490.568 214.311 492.594 242.945C495.135 278.856 474.004 304.694 407.529 346.967C337.489 391.5 313.484 428.172 328.108 468.291C342.312 507.25 387.856 503.715 457.204 458.269C558.776 391.708 610.822 371.995 640.247 388.944C654.453 397.126 660.786 421.596 654.678 444.682C648.322 468.699 613.146 520.79 588.546 542.613C560.254 567.712 498.817 607.96 471.326 619.399C414.001 643.258 324.036 645.565 250.346 625.06C156.728 599.015 52.2596 538.543 25.4432 494.883C11.6228 472.379 -0.300195 424.726 0.00576142 393.203C0.330282 359.465 7.57608 315.002 26.5432 230.364C50.0429 125.498 63.9037 79.4286 80.6652 50.4489C96.7334 22.6751 107.365 15.7372 129.5 18.5945C161.898 22.7772 187.171 47.337 192.688 80.0088C198.568 114.825 192.575 131.374 143.02 217.196C101.57 288.981 98.3195 295.808 98.4293 310.754C98.7076 348.521 126.619 345.019 180.15 300.502Z" fill="#FAB43B"/>
</svg>
